<?xml version="1.0" encoding="utf-8"?>
<!-- Generator: Adobe Illustrator 15.1.0, SVG Export Plug-In  -->
<!DOCTYPE svg PUBLIC "-//W3C//DTD SVG 1.1//EN" "http://www.w3.org/Graphics/SVG/1.1/DTD/svg11.dtd" [
	<!ENTITY ns_flows "http://ns.adobe.com/Flows/1.0/">
]>
<svg version="1.1"
	 xmlns="http://www.w3.org/2000/svg" xmlns:xlink="http://www.w3.org/1999/xlink" xmlns:a="http://ns.adobe.com/AdobeSVGViewerExtensions/3.0/"
	 x="0px" y="0px" width="154px" height="22px" viewBox="0 -0.078 154 22"
	 style="overflow:visible;enable-background:new 0 -0.078 154 22;" xml:space="preserve">
<style type="text/css">
<![CDATA[
	.st0{fill:#FFFFFF;}
]]>
</style>
<defs>
</defs>
<path class="st0" d="M10.796,3.377C4.571,3.377,0,7.396,0,12.86c0,5.253,4.255,8.983,10.245,8.983
	c6.172,0,10.612-3.967,10.612-9.509C20.857,7.082,16.707,3.377,10.796,3.377L10.796,3.377z M10.166,4.585
	c3.782,0,6.488,3.678,6.488,8.774c0,4.386-2.285,7.276-5.726,7.276c-3.967,0-6.699-3.651-6.699-8.905
	C4.229,7.291,6.489,4.585,10.166,4.585L10.166,4.585z"/>
<path class="st0" d="M27.37,15.941c0.863,0.138,1.627,0.215,2.431,0.215c3.214,0,5.273-1.568,5.273-3.999
	c0-2.548-2.137-4.117-5.626-4.117c-0.51,0-1.235,0.02-2.353,0.079c-0.666,0.04-0.02,0-2.175,0.118
	c-2.608,0.137-1.843,0.098-2.392,0.137v0.823h0.49c0.725,0,0.98,0.079,1.216,0.333c0.215,0.216,0.215,0.294,0.234,1.372v8.019
	c-0.02,0.961-0.02,1-0.117,1.216c-0.196,0.371-0.509,0.489-1.333,0.489h-0.333v0.824h7.156v-0.824h-0.647
	c-1.489,0-1.823-0.333-1.823-1.843V15.941L27.37,15.941z M27.37,9.099c0.49-0.137,0.98-0.196,1.451-0.196
	c1.999,0,3.097,1.118,3.097,3.157c0,1.999-1.118,3.156-3.039,3.156c-0.607,0-1.039-0.04-1.509-0.138V9.099L27.37,9.099z"/>
<path class="st0" d="M44.508,9.452h2.489c1.607,0,1.843,0.255,2.294,2.49h0.824l-0.373-3.921h-0.646
	c-0.215,0.294-0.374,0.353-1.079,0.353h-9.43c-1.215,0-1.156,0-1.529-0.353h-0.686l-0.353,3.921h0.862
	c0.412-2.255,0.647-2.49,2.529-2.49h2.195v9.331c0,1.51-0.333,1.843-1.823,1.843h-0.51v0.824h7.567v-0.824h-0.51
	c-1.489,0-1.823-0.333-1.823-1.843V9.452L44.508,9.452z"/>
<path class="st0" d="M56.489,11.04c0-1.509,0.333-1.843,1.822-1.843h0.138V8.374h-6.686v0.823h0.06c1.431,0,1.764,0.353,1.764,1.843
	v7.743c0,1.472-0.333,1.843-1.764,1.843h-0.06v0.824h6.686v-0.824h-0.138c-1.489,0-1.822-0.333-1.822-1.843V11.04L56.489,11.04z"/>
<path class="st0" d="M75.268,15.177H68.29v0.804c2.294,0.059,2.607,0.235,2.607,1.451v2.764c-0.567,0.333-1.451,0.549-2.274,0.549
	c-2.94,0-5.057-2.549-5.057-6.117c0-3.333,2.078-5.705,4.999-5.705c2.235,0,3.823,1.255,4.372,3.451h0.862V8.531H73.27
	c-0.157,0.196-0.315,0.275-0.628,0.275c-0.196,0-0.451-0.04-0.823-0.138c-1.901-0.509-2.627-0.627-3.745-0.627
	c-4.469,0-7.665,2.882-7.665,6.881c0,4.039,3.019,6.822,7.411,6.822c1.881,0,3.489-0.354,5.979-1.293v-3.138
	c0-0.98,0.373-1.313,1.47-1.333V15.177L75.268,15.177z"/>
<path class="st0" d="M81.687,15.882h0.334h1.331c0.629,0.589,1.06,1.099,1.744,2.039l0.257,0.334l0.254,0.352l0.235,0.334
	c0.55,0.745,1.039,1.333,1.432,1.646c0.941,0.804,2.097,1.099,4.312,1.099c0.393,0,0.609,0,1.374-0.02v-0.824
	c-0.765-0.078-1.177-0.156-1.59-0.352c-0.665-0.314-1.686-1.294-2.469-2.373c-1.001-1.372-0.98-1.372-1.333-1.784
	c-0.373-0.451-0.588-0.686-1.02-1.038c1.961-0.53,3.116-1.804,3.116-3.412c0-1.509-0.998-2.803-2.528-3.313
	c-1.137-0.392-2.313-0.529-4.293-0.529c-1.412,0-3.646,0.118-6.176,0.333v0.823h0.295c1.489,0,1.822,0.333,1.822,1.843v7.743
	c0,1.51-0.333,1.843-1.822,1.843h-0.334v0.824h7.353v-0.824h-0.472c-1.488,0-1.822-0.333-1.822-1.843V15.882L81.687,15.882z
	 M81.687,15.079V8.962c0.372-0.04,0.567-0.059,0.882-0.059c2.667,0,3.939,1,3.939,3.098c0,2.137-1.332,3.078-4.312,3.078H81.687
	L81.687,15.079z"/>
<path class="st0" d="M106.041,11.511c0-1.137,0.06-1.49,0.313-1.784c0.295-0.333,0.882-0.53,1.607-0.53h0.157V8.374h-5.45v0.823
	h0.176c1.549,0,1.921,0.49,1.921,2.548v3.667c0,1.353-0.019,1.725-0.137,2.215c-0.391,1.726-1.842,2.725-3.96,2.725
	c-1.529,0-2.725-0.548-3.353-1.529c-0.391-0.646-0.49-1.116-0.49-2.587V11.04c0-1.49,0.333-1.843,1.766-1.843h0.098V8.374h-6.587
	v0.823h0.137c1.471,0,1.687,0.235,1.687,1.843v5.116c0,0.98,0.04,1.589,0.176,2.079c0.53,2.235,2.725,3.509,6.037,3.509
	c2.728,0,4.687-1.098,5.452-3.039c0.371-0.901,0.45-1.548,0.45-3.293V11.511L106.041,11.511z M97.885,4.296
	c-0.823,0-1.489,0.667-1.489,1.471c0,0.824,0.666,1.49,1.489,1.49c0.805,0,1.471-0.666,1.471-1.451
	C99.355,4.963,98.709,4.296,97.885,4.296L97.885,4.296z M103.158,4.296c-0.822,0-1.488,0.667-1.488,1.471
	c0,0.824,0.666,1.49,1.488,1.49c0.805,0,1.471-0.666,1.471-1.451C104.629,4.963,103.982,4.296,103.158,4.296L103.158,4.296z"/>
<path class="st0" d="M112.026,10.981l10.096,10.547h1.137V10.864c0-1.157,0.06-1.314,0.471-1.49
	c0.255-0.098,0.765-0.176,1.234-0.176h0.236V8.374h-5.431v0.823h0.234c1.667,0,1.98,0.274,1.98,1.784v6.332l-8.587-8.939h-4.331
	v0.823c0.666,0,1.235,0.157,1.686,0.451v9.272c0,1.372-0.294,1.705-1.51,1.705h-0.216v0.824h5.077v-0.824
	c-1.686,0-2.077-0.353-2.077-1.881V10.981L112.026,10.981z"/>
<path class="st0" d="M122.351,2.353c0.262,0,0.451-0.036,0.562-0.107c0.112-0.073,0.169-0.19,0.169-0.351
	c0-0.172-0.06-0.297-0.179-0.375c-0.117-0.08-0.307-0.121-0.568-0.121h-0.442v0.953H122.351L122.351,2.353z M122.975,2.611
	l0.651,1.311h-0.616l-0.585-1.225h-0.532v1.225h-0.544V1.049h1.083c0.401,0,0.703,0.067,0.905,0.2
	c0.201,0.13,0.302,0.327,0.302,0.588c0,0.204-0.057,0.375-0.174,0.512C123.347,2.487,123.185,2.574,122.975,2.611L122.975,2.611z
	 M124.567,2.556c0-0.307-0.054-0.595-0.16-0.863c-0.108-0.271-0.265-0.512-0.472-0.723c-0.207-0.204-0.446-0.361-0.716-0.471
	c-0.27-0.112-0.554-0.168-0.85-0.168c-0.299,0-0.578,0.053-0.842,0.161s-0.495,0.263-0.695,0.464
	c-0.211,0.213-0.374,0.456-0.487,0.729c-0.116,0.273-0.173,0.556-0.173,0.85c0,0.289,0.055,0.567,0.166,0.836
	c0.111,0.266,0.27,0.5,0.474,0.705c0.209,0.208,0.446,0.37,0.716,0.484c0.269,0.115,0.541,0.172,0.822,0.172
	c0.296,0,0.583-0.054,0.856-0.165c0.271-0.112,0.515-0.272,0.729-0.481c0.201-0.202,0.357-0.434,0.468-0.698
	S124.567,2.847,124.567,2.556L124.567,2.556z M122.37,0c0.286,0,0.562,0.045,0.826,0.135c0.266,0.089,0.509,0.22,0.732,0.392
	c0.309,0.241,0.549,0.537,0.719,0.888c0.172,0.351,0.257,0.724,0.257,1.121c0,0.344-0.063,0.669-0.188,0.977
	c-0.127,0.305-0.309,0.573-0.55,0.805c-0.25,0.243-0.53,0.43-0.84,0.561c-0.31,0.128-0.629,0.193-0.956,0.193
	c-0.332,0-0.654-0.065-0.967-0.196c-0.309-0.131-0.584-0.318-0.828-0.564c-0.238-0.238-0.422-0.51-0.55-0.814
	c-0.127-0.308-0.19-0.627-0.19-0.96c0-0.28,0.047-0.554,0.139-0.822c0.094-0.269,0.23-0.518,0.409-0.75
	c0.242-0.312,0.535-0.55,0.876-0.715C121.602,0.083,121.971,0,122.37,0L122.37,0z"/>
<path class="st0" d="M149.228,8.575c-0.459-0.145-4.686-0.499-6.725-0.31c-2.038,0.188-3.702,0.672-5.03,1.439
	c-3.605,2.081-4.365,5.724-2.474,9.062c-2.198,1.27-3.69,1.518-3.854,1.237c-0.103-0.18-0.115-0.614-0.277-0.896
	c-0.385-0.664-1.156-0.763-1.668-0.468c-0.587,0.339-0.852,1.241-0.379,2.06c0.901,1.559,3.644,1.236,7.235-0.633
	c2.707,1.913,5.104,1.994,8.07,0.282c2.198-1.27,5.104-3.97,7.803-7.504l2.07-2.73L149.228,8.575L149.228,8.575z M143.118,19.191
	c-2.147,1.24-4.093,1-5.579,0.019c3.566-2.503,5.357-3.946,8.747-7.404l1.809-1.828l3.944,0.279l-1.057,1.36
	C148.296,15.111,145.521,17.804,143.118,19.191L143.118,19.191z M136.429,18.111c-0.173-0.24-0.222-0.383-0.281-0.485
	c-1.474-2.556-0.362-5.176,1.939-6.504c2.07-1.196,4.419-1.495,8.03-1.263l-1.452,1.384
	C141.279,14.528,139.158,16.229,136.429,18.111L136.429,18.111z"/>
</svg>
