<?xml version="1.0" encoding="utf-8"?>
<!-- Generator: Adobe Illustrator 15.1.0, SVG Export Plug-In  -->
<!DOCTYPE svg PUBLIC "-//W3C//DTD SVG 1.1//EN" "http://www.w3.org/Graphics/SVG/1.1/DTD/svg11.dtd" [
	<!ENTITY ns_flows "http://ns.adobe.com/Flows/1.0/">
]>
<svg version="1.1"
	 xmlns="http://www.w3.org/2000/svg" xmlns:xlink="http://www.w3.org/1999/xlink" xmlns:a="http://ns.adobe.com/AdobeSVGViewerExtensions/3.0/"
	 x="0px" y="0px" width="282px" height="56px" viewBox="0 0 282 56" style="overflow:visible;enable-background:new 0 0 282 56;"
	 xml:space="preserve">
<style type="text/css">
<![CDATA[
	.st0{fill:#65B22E;}
	.st1{fill:#00883E;}
]]>
</style>
<defs>
</defs>
<path class="st1" d="M159.223,52.388c0-0.966-0.204-1.771-0.62-2.35c-0.642-0.885-1.414-1.159-2.626-1.159h-1.627v7.01h1.749
	c1.222,0,1.872-0.336,2.361-0.946C158.928,54.362,159.223,53.527,159.223,52.388L159.223,52.388z M158.134,52.511
	c0,0.692-0.122,1.321-0.376,1.79c-0.315,0.569-0.835,0.783-1.639,0.783h-0.772v-5.422h0.794c0.681,0,1.088,0.131,1.475,0.621
	C158.032,50.811,158.134,51.533,158.134,52.511L158.134,52.511z M164.44,55.889v-7.01h-0.996v7.01H164.44L164.44,55.889z
	 M172.874,55.889v-0.846h-2.931v-2.399h2.25v-0.826h-2.26v-2.135h2.696l0.133-0.804h-3.815v7.01H172.874L172.874,55.889z
	 M186.763,52.388c0-0.966-0.204-1.771-0.622-2.35c-0.64-0.885-1.413-1.159-2.624-1.159h-1.628v7.01h1.75
	c1.221,0,1.871-0.336,2.36-0.946C186.467,54.362,186.763,53.527,186.763,52.388L186.763,52.388z M185.674,52.511
	c0,0.692-0.122,1.321-0.375,1.79c-0.317,0.569-0.836,0.783-1.64,0.783h-0.773v-5.422h0.793c0.684,0,1.09,0.131,1.476,0.621
	C185.573,50.811,185.674,51.533,185.674,52.511L185.674,52.511z M195.783,55.889l-2.259-7.021h-1.22l-2.301,7.021h1.018l0.611-1.984
	h2.431l0.622,1.984H195.783L195.783,55.889z M193.85,53.09h-1.973c0.122-0.336,0.865-2.848,0.966-3.246h0.062
	C192.996,50.251,193.729,52.765,193.85,53.09L193.85,53.09z M203.863,55.41l-0.479-0.642c-0.375,0.295-0.753,0.438-1.292,0.438
	c-0.742,0-1.393-0.366-1.718-1.139c-0.173-0.41-0.256-0.865-0.256-1.649c0-0.845,0.112-1.435,0.337-1.882
	c0.326-0.651,0.864-1.009,1.558-1.009c0.467,0,0.854,0.123,1.239,0.408l0.479-0.642c-0.438-0.355-1.057-0.549-1.718-0.549
	c-1.079,0-2.005,0.611-2.526,1.606c-0.293,0.57-0.456,1.271-0.456,2.087c0,1.018,0.264,1.861,0.763,2.503
	c0.53,0.672,1.263,1.047,2.178,1.047C202.685,55.989,203.323,55.796,203.863,55.41L203.863,55.41z M212.489,55.889v-7.01h-0.986
	v2.879h-2.676v-2.879h-0.966v7.01h0.966v-3.328h2.676v3.328H212.489L212.489,55.889z M221.67,53.965
	c0-0.916-0.509-1.577-1.566-1.811c0.854-0.254,1.271-0.813,1.271-1.546c0-0.642-0.325-1.142-0.946-1.467
	c-0.437-0.233-0.753-0.263-1.934-0.263h-1.485v7.01h2.137c0.367,0,0.793-0.031,1.109-0.113
	C221.069,55.562,221.67,54.942,221.67,53.965L221.67,53.965z M220.592,53.853c0,0.896-0.652,1.241-1.231,1.241h-1.385v-2.44h1.131
	c0.346,0,0.549,0.02,0.732,0.06C220.276,52.814,220.592,53.283,220.592,53.853L220.592,53.853z M220.317,50.771
	c0,0.233-0.072,0.498-0.204,0.683c-0.203,0.273-0.417,0.386-1.039,0.386h-1.107v-2.137h0.954c0.357,0,0.551,0.019,0.714,0.071
	C220.043,49.896,220.317,50.283,220.317,50.771L220.317,50.771z M229.802,55.889v-0.846h-2.933v-2.399h2.249v-0.826h-2.258v-2.135
	h2.695l0.132-0.804h-3.815v7.01H229.802L229.802,55.889z M238.354,55.43v-3.275h-2.422l0.161,0.804h1.295v1.995
	c-0.286,0.162-0.643,0.264-1.038,0.264c-0.602,0-1.201-0.234-1.507-0.63c-0.324-0.429-0.499-1.15-0.499-2.117
	c0-0.835,0.062-1.333,0.389-2.005c0.303-0.631,0.833-0.895,1.506-0.895c0.538,0,0.977,0.15,1.495,0.528l0.467-0.61
	c-0.549-0.479-1.22-0.702-1.983-0.702c-0.691,0-1.252,0.183-1.759,0.601c-0.807,0.66-1.213,1.629-1.213,3.032
	c0,1.148,0.256,1.973,0.815,2.624c0.539,0.633,1.28,0.946,2.218,0.946C237.022,55.989,237.784,55.786,238.354,55.43L238.354,55.43z
	 M247.375,55.889c-0.142-0.225-0.712-1.14-1.018-1.618c-0.232-0.366-0.446-0.672-0.589-0.864c-0.122-0.165-0.285-0.388-0.61-0.652
	c1.171,0.041,1.871-0.833,1.871-1.923c0-0.682-0.306-1.148-0.62-1.444c-0.336-0.315-0.824-0.508-1.658-0.508h-1.965v7.01h0.978
	v-3.104c0.295,0.01,0.448,0.112,0.631,0.315c0.499,0.558,0.671,0.854,1.21,1.749c0.285,0.479,0.378,0.644,0.58,1.039H247.375
	L247.375,55.889z M246.003,50.843c0,0.406-0.134,0.741-0.346,0.945c-0.246,0.233-0.592,0.335-1.211,0.335h-0.683v-2.44h0.732
	c0.367,0,0.651,0.05,0.855,0.131C245.737,49.967,246.003,50.353,246.003,50.843L246.003,50.843z M255.884,53.69v-4.812h-0.977v4.669
	c0,0.561-0.082,0.937-0.254,1.16c-0.223,0.295-0.609,0.458-1.14,0.458c-0.56,0-0.914-0.173-1.109-0.397
	c-0.203-0.232-0.254-0.854-0.254-1.362v-4.527h-0.986v4.893c0,0.732,0.04,0.925,0.225,1.252c0.355,0.641,1.058,0.977,2.116,0.977
	c1.078,0,1.658-0.386,2.013-0.825C255.834,54.789,255.884,54.575,255.884,53.69L255.884,53.69z M253.056,47.883
	c0-0.348-0.273-0.633-0.601-0.633c-0.325,0-0.59,0.285-0.59,0.633c0,0.344,0.265,0.639,0.59,0.639
	C252.792,48.521,253.056,48.227,253.056,47.883L253.056,47.883z M255.183,47.883c0-0.348-0.275-0.633-0.6-0.633
	c-0.325,0-0.591,0.285-0.591,0.633c0,0.344,0.266,0.639,0.591,0.639C254.918,48.521,255.183,48.227,255.183,47.883L255.183,47.883z
	 M265.019,55.889v-7.01h-0.947l0.019,3.438c0,0.772,0.083,1.881,0.103,2.085l-0.061,0.02c-0.051-0.192-0.397-1.097-0.693-1.678
	l-1.952-3.865h-1.14v7.01h0.987l-0.042-3.684c-0.008-0.651-0.03-1.354-0.079-1.954l0.06-0.009c0.133,0.407,0.498,1.2,0.855,1.923
	l1.841,3.724H265.019L265.019,55.889z M273.465,55.889v-0.846h-2.932v-2.399h2.25v-0.826h-2.259v-2.135h2.697l0.131-0.804h-3.815
	v7.01H273.465L273.465,55.889z M282,55.889c-0.142-0.225-0.712-1.14-1.018-1.618c-0.233-0.366-0.446-0.672-0.59-0.864
	c-0.122-0.165-0.284-0.388-0.608-0.652c1.169,0.041,1.87-0.833,1.87-1.923c0-0.682-0.305-1.148-0.62-1.444
	c-0.336-0.315-0.825-0.508-1.658-0.508h-1.963v7.01h0.977v-3.104c0.294,0.01,0.447,0.112,0.63,0.315
	c0.499,0.558,0.671,0.854,1.21,1.749c0.285,0.479,0.377,0.644,0.58,1.039H282L282,55.889z M280.627,50.843
	c0,0.406-0.133,0.741-0.346,0.945c-0.245,0.233-0.591,0.335-1.211,0.335h-0.681v-2.44h0.732c0.366,0,0.65,0.05,0.854,0.131
	C280.362,49.967,280.627,50.353,280.627,50.843L280.627,50.843z"/>
<path class="st1" d="M19.769,6.185C8.37,6.185,0,13.544,0,23.549C0,33.168,7.792,40,18.76,40c11.301,0,19.432-7.265,19.432-17.414
	C38.192,12.967,30.593,6.185,19.769,6.185L19.769,6.185z M18.615,8.396c6.926,0,11.88,6.734,11.88,16.067
	c0,8.032-4.185,13.324-10.485,13.324c-7.264,0-12.266-6.687-12.266-16.307C7.745,13.351,11.882,8.396,18.615,8.396L18.615,8.396z"/>
<path class="st1" d="M50.119,29.19c1.58,0.253,2.979,0.395,4.451,0.395c5.886,0,9.656-2.872,9.656-7.323
	c0-4.666-3.913-7.539-10.303-7.539c-0.933,0-2.262,0.037-4.308,0.144c-1.22,0.073-0.036,0-3.983,0.216
	c-4.776,0.251-3.375,0.179-4.381,0.251v1.508h0.898c1.327,0,1.794,0.144,2.226,0.61c0.394,0.396,0.394,0.539,0.429,2.512v14.684
	c-0.036,1.759-0.036,1.831-0.215,2.227c-0.359,0.68-0.933,0.896-2.44,0.896h-0.611v1.51h13.104v-1.51h-1.186
	c-2.727,0-3.337-0.609-3.337-3.374V29.19L50.119,29.19z M50.119,16.662c0.897-0.25,1.794-0.358,2.657-0.358
	c3.661,0,5.671,2.047,5.671,5.78c0,3.661-2.047,5.779-5.565,5.779c-1.112,0-1.902-0.072-2.763-0.251V16.662L50.119,16.662z"/>
<path class="st1" d="M81.501,17.308h4.558c2.943,0,3.375,0.467,4.2,4.56h1.508l-0.683-7.18h-1.184
	c-0.395,0.539-0.684,0.646-1.975,0.646H70.659c-2.226,0-2.117,0-2.799-0.646h-1.257l-0.646,7.18h1.579
	c0.755-4.129,1.185-4.56,4.631-4.56h4.02v17.087c0,2.765-0.609,3.374-3.337,3.374h-0.935v1.51h13.857v-1.51h-0.934
	c-2.727,0-3.337-0.609-3.337-3.374V17.308L81.501,17.308z"/>
<path class="st1" d="M103.441,20.216c0-2.764,0.61-3.375,3.337-3.375h0.252v-1.508H94.788v1.508h0.109c2.62,0,3.23,0.646,3.23,3.375
	v14.18c0,2.693-0.61,3.374-3.23,3.374h-0.109v1.51h12.243v-1.51h-0.252c-2.727,0-3.337-0.609-3.337-3.374V20.216L103.441,20.216z"/>
<path class="st1" d="M137.829,27.791h-12.779v1.472c4.201,0.107,4.774,0.431,4.774,2.656v5.062c-1.039,0.61-2.656,1.006-4.164,1.006
	c-5.384,0-9.26-4.669-9.26-11.201c0-6.103,3.805-10.446,9.154-10.446c4.092,0,7,2.298,8.004,6.318h1.58v-7.036h-0.969
	c-0.287,0.359-0.576,0.503-1.15,0.503c-0.359,0-0.825-0.072-1.507-0.252c-3.481-0.933-4.811-1.149-6.857-1.149
	c-8.183,0-14.035,5.277-14.035,12.601c0,7.396,5.528,12.494,13.569,12.494c3.445,0,6.39-0.647,10.948-2.369v-5.744
	c0-1.796,0.682-2.406,2.691-2.441V27.791L137.829,27.791z"/>
<path class="st1" d="M149.581,29.082h0.611h2.438c1.151,1.078,1.94,2.011,3.194,3.733l0.469,0.612l0.466,0.644l0.432,0.611
	c1.006,1.365,1.901,2.441,2.621,3.016c1.724,1.472,3.84,2.011,7.896,2.011c0.719,0,1.114,0,2.515-0.036v-1.508
	c-1.4-0.144-2.154-0.286-2.91-0.645c-1.219-0.575-3.087-2.37-4.521-4.345c-1.833-2.513-1.796-2.513-2.442-3.268
	c-0.682-0.826-1.076-1.255-1.865-1.902c3.59-0.969,5.706-3.302,5.706-6.247c0-2.764-1.829-5.133-4.63-6.067
	c-2.082-0.718-4.237-0.969-7.861-0.969c-2.586,0-6.677,0.216-11.31,0.61v1.508h0.54c2.728,0,3.338,0.61,3.338,3.375v14.18
	c0,2.765-0.61,3.374-3.338,3.374h-0.611v1.51h13.464v-1.51h-0.863c-2.727,0-3.338-0.609-3.338-3.374V29.082L149.581,29.082z
	 M149.581,27.611v-11.2c0.683-0.072,1.04-0.108,1.616-0.108c4.883,0,7.213,1.831,7.213,5.672c0,3.913-2.439,5.636-7.896,5.636
	H149.581L149.581,27.611z"/>
<path class="st1" d="M194.179,21.078c0-2.083,0.108-2.728,0.574-3.267c0.539-0.61,1.615-0.97,2.943-0.97h0.288v-1.508h-9.98v1.508
	h0.322c2.835,0,3.518,0.897,3.518,4.667v6.713c0,2.478-0.035,3.159-0.25,4.056c-0.717,3.159-3.374,4.99-7.253,4.99
	c-2.8,0-4.988-1.005-6.139-2.801c-0.716-1.185-0.896-2.045-0.896-4.737v-9.514c0-2.729,0.609-3.375,3.231-3.375h0.18v-1.508h-12.062
	v1.508h0.25c2.693,0,3.089,0.431,3.089,3.375v9.369c0,1.795,0.072,2.908,0.322,3.807c0.97,4.094,4.989,6.426,11.055,6.426
	c4.993,0,8.581-2.011,9.983-5.565c0.679-1.651,0.824-2.835,0.824-6.031V21.078L194.179,21.078z M179.243,7.866
	c-1.507,0-2.727,1.221-2.727,2.693c0,1.508,1.22,2.728,2.727,2.728c1.474,0,2.693-1.22,2.693-2.657
	C181.937,9.087,180.753,7.866,179.243,7.866L179.243,7.866z M188.9,7.866c-1.507,0-2.727,1.221-2.727,2.693
	c0,1.508,1.22,2.728,2.727,2.728c1.474,0,2.693-1.22,2.693-2.657C191.594,9.087,190.409,7.866,188.9,7.866L188.9,7.866z"/>
<path class="st1" d="M205.14,20.109l18.485,19.313h2.083V19.893c0-2.118,0.108-2.406,0.86-2.729c0.468-0.18,1.4-0.323,2.262-0.323
	h0.432v-1.508h-9.943v1.508h0.429c3.053,0,3.627,0.503,3.627,3.268v11.595L207.65,15.333h-7.932v1.508
	c1.22,0,2.262,0.288,3.086,0.826v16.98c0,2.513-0.538,3.122-2.764,3.122h-0.396v1.51h9.298v-1.51c-3.087,0-3.804-0.646-3.804-3.445
	V20.109L205.14,20.109z"/>
<path class="st1" d="M224.875,4.309c0.48,0,0.826-0.065,1.031-0.196c0.205-0.134,0.309-0.349,0.309-0.642
	c0-0.315-0.108-0.543-0.328-0.687c-0.213-0.147-0.561-0.221-1.039-0.221h-0.811v1.745H224.875L224.875,4.309z M226.019,4.78
	l1.192,2.4h-1.129l-1.071-2.242h-0.974V7.18h-0.996V1.921h1.982c0.735,0,1.288,0.123,1.657,0.366
	c0.37,0.239,0.554,0.598,0.554,1.077c0,0.373-0.104,0.686-0.319,0.938C226.7,4.554,226.403,4.713,226.019,4.78L226.019,4.78z
	 M228.935,4.679c0-0.562-0.098-1.089-0.294-1.58c-0.197-0.496-0.484-0.937-0.863-1.323c-0.378-0.373-0.816-0.661-1.311-0.862
	c-0.494-0.206-1.015-0.308-1.556-0.308c-0.547,0-1.059,0.098-1.541,0.295c-0.482,0.198-0.907,0.481-1.274,0.851
	c-0.386,0.39-0.685,0.835-0.892,1.335c-0.212,0.5-0.316,1.018-0.316,1.556c0,0.529,0.101,1.039,0.304,1.53
	c0.204,0.487,0.493,0.917,0.867,1.291c0.383,0.382,0.818,0.678,1.312,0.888c0.491,0.209,0.99,0.314,1.505,0.314
	c0.542,0,1.068-0.1,1.568-0.302c0.496-0.205,0.942-0.499,1.334-0.882c0.368-0.369,0.654-0.795,0.857-1.277
	C228.837,5.721,228.935,5.213,228.935,4.679L228.935,4.679z M224.911,0c0.524,0,1.028,0.083,1.513,0.246
	c0.487,0.164,0.933,0.403,1.341,0.718c0.565,0.441,1.005,0.982,1.317,1.625c0.314,0.642,0.47,1.326,0.47,2.053
	c0,0.629-0.116,1.225-0.346,1.788c-0.232,0.559-0.565,1.05-1.007,1.473c-0.458,0.445-0.97,0.788-1.537,1.027
	c-0.567,0.235-1.151,0.353-1.751,0.353c-0.608,0-1.198-0.12-1.771-0.359c-0.565-0.239-1.069-0.583-1.517-1.033
	c-0.436-0.436-0.772-0.934-1.006-1.491c-0.232-0.563-0.349-1.149-0.349-1.757c0-0.512,0.085-1.014,0.254-1.505
	c0.171-0.492,0.421-0.949,0.748-1.374c0.444-0.571,0.981-1.006,1.605-1.31C223.503,0.152,224.181,0,224.911,0L224.911,0z"/>
<path class="st0" d="M273.26,15.701c-0.84-0.264-8.58-0.914-12.312-0.568c-3.733,0.346-6.779,1.23-9.213,2.636
	c-6.601,3.812-7.992,10.482-4.528,16.594c-4.025,2.324-6.758,2.778-7.057,2.265c-0.188-0.328-0.211-1.125-0.508-1.641
	c-0.704-1.216-2.118-1.397-3.055-0.856c-1.074,0.62-1.559,2.272-0.693,3.771c1.649,2.854,6.672,2.264,13.249-1.158
	c4.956,3.503,9.346,3.65,14.777,0.516c4.026-2.324,9.347-7.269,14.288-13.741L282,18.519L273.26,15.701L273.26,15.701z
	 M262.072,35.143c-3.931,2.271-7.493,1.831-10.216,0.034c6.531-4.584,9.811-7.227,16.018-13.558l3.312-3.347l7.222,0.511
	l-1.934,2.49C271.555,27.671,266.474,32.601,262.072,35.143L262.072,35.143z M249.824,33.165c-0.317-0.44-0.406-0.702-0.516-0.889
	c-2.699-4.682-0.663-9.479,3.551-11.911c3.791-2.189,8.092-2.738,14.706-2.312l-2.66,2.533
	C258.705,26.602,254.821,29.717,249.824,33.165L249.824,33.165z"/>
</svg>
